<svg xmlns="http://www.w3.org/2000/svg" width="74.812" height="40"><path d="M0 31.493v-5.128c0-2.655 1.629-3.922 4.827-3.922h5.732c1.508 0 2.232.664 2.232 2.051v7.059h-2.655v-6.455c0-.784-.362-1.146-1.086-1.146h-.9v7.541H5.068v-7.6h-.06c-1.267 0-1.931.664-1.931 2.051v5.549zm13.997-3.982v-1.206c0-2.655 1.629-3.922 4.827-3.922h6.4v7.059c0 1.388-.724 2.051-2.232 2.051h-4.168c-3.198 0-4.827-1.327-4.827-3.982zm8.205 1.272v-4.831h-3.2c-1.267 0-1.87.664-1.87 2.051v1.991c0 1.388.6 2.051 1.87 2.051h2.112a1.13 1.13 0 0 0 1.088-1.262zm4.525 2.227a1.323 1.323 0 0 1-.422-1.027 1.783 1.783 0 0 1 .784-1.448c1.81-1.207 3.68-2.474 5.732-3.861a.365.365 0 0 0 .181-.362c0-.3-.121-.422-.422-.422h-5.975v-1.507h9.231a1.5 1.5 0 0 1 1.146.422 1.323 1.323 0 0 1 .422 1.026 1.706 1.706 0 0 1-.784 1.448c-1.81 1.207-3.68 2.534-5.732 3.861a.43.43 0 0 0-.181.362c0 .3.121.483.422.483h5.976v1.508h-9.231a1.545 1.545 0 0 1-1.147-.483zm11.765-3.499v-1.206c0-2.655 1.629-3.922 4.827-3.922h1.81a6.45 6.45 0 0 1 3.62.784 2.381 2.381 0 0 1 1.206 2.116 2.424 2.424 0 0 1-.6 1.689 2.066 2.066 0 0 1-1.629.724h-6.157v.241c0 1.388.664 2.051 1.931 2.051h5.008v1.505h-5.129c-3.318 0-4.887-1.327-4.887-3.982zm8.386-2.293a1.172 1.172 0 0 0-.483-.965 2.365 2.365 0 0 0-1.388-.362H43.5c-1.267 0-1.87.664-1.931 2.051v.241h4.1c.787 0 1.209-.361 1.209-.964zm4.163 2.293v-1.206c0-2.655 1.629-3.922 4.827-3.922h1.81a6.45 6.45 0 0 1 3.62.784 2.381 2.381 0 0 1 1.206 2.116 2.424 2.424 0 0 1-.6 1.689 2.066 2.066 0 0 1-1.629.724h-6.157v.241c0 1.388.6 2.051 1.87 2.051h5.008v1.505h-5.128c-3.198 0-4.827-1.327-4.827-3.982zm8.386-2.293a1.172 1.172 0 0 0-.483-.965 2.241 2.241 0 0 0-1.388-.362h-1.507c-1.267 0-1.87.664-1.87 2.051v.241h4.1c.786 0 1.148-.361 1.148-.964zm4.163 2.294v-1.207c0-2.655 1.629-3.922 4.827-3.922h3.318v-2.654h3.077v9.713c0 1.388-.724 2.051-2.232 2.051h-4.163c-3.198.001-4.827-1.327-4.827-3.981zm8.205 1.267v-4.827h-3.2c-1.267 0-1.87.664-1.87 2.051v1.991c0 1.388.664 2.051 1.87 2.051h2.112a1.13 1.13 0 0 0 1.088-1.266zm-50.86-11.705V8.628q0-6.516 7.964-6.516H45.49c1.689 0 2.775.543 3.318 1.569h-.483v1.448h-1.447v.965h1.448v1.448h.845v2.112h-1.388V7.482h-1.509v2.172h-2.232v1.508h2.232v2.172h1.508v-2.172h1.327v5.913H37.587v-10.5c0-1.267-.6-1.931-1.75-1.931h-1.508v12.43h-5.068V4.586h-.121c-2.112 0-3.137 1.146-3.137 3.318v9.108h-5.068zm22.262-4.585v-.6h.6v-.422h-.6v-.6h-.422v.6h-.6v.422h.6v.6zm1.026-3.258V7.783h1.448v-.965h-1.448V5.37h-.965v1.448H41.81v.965h1.448v1.448zm1.991-4.163v-.845h.845V3.68h-.845v-.845h-.543v.845h-.845v.543h.845v.845zm-2.9-1.207v-.6h.6v-.422h-.6v-.6h-.422v.6h-.6v.422h.6v.6z" fill="#0073a1" fill-rule="evenodd"/><path d="M55.264 11.765v-1.267h-1.267v-.9h1.267V8.326h.9v1.267h1.267v.9h-1.262v1.267z" fill="#94cfe5"/><path d="M58.28 8.507V7.24h-1.327v-.9h1.327V5.068h.845v1.267h1.328v.9h-1.327v1.267z" fill="#ab9100"/><path d="M60.753 11.161v-.784h-.784v-.543h.784v-.845h.543v.845h.784v.543h-.784v.784z" fill="#94cfe5" fill-rule="evenodd"/><path d="M51.764 10.261V7.903h-2.413V6.274h2.413V3.861h1.629v2.413h2.413v1.629h-2.413v2.358z" fill="#0073a1"/><path d="M55.444 5.43v-.845h-.784v-.483h.784v-.844h.543v.845h.784v.483h-.784v.845z" fill="#124a61"/><path d="M54.479 3.258V2.172h-1.146v-.784h1.146V.241h.784v1.146h1.146v.784h-1.145v1.086z" fill="#00a161" fill-rule="evenodd"/><path d="M49.713 4.4V2.775h-1.629V1.629h1.629V0h1.146v1.629h1.625v1.146h-1.625V4.4z" fill="#ebb5ad"/><path d="M57.676 4.043v-.784h-.784v-.543h.784v-.785h.543v.784h.784v.543h-.784v.784z" fill="#94cfe5"/><path d="M50.316 14.178v-1.267h-1.327v-.845h1.327v-1.327h.845v1.327h1.328v.845h-1.328v1.267z" fill="#cf4503"/><path d="M53.393 16.592v-1.328h-1.267v-.845h1.267v-1.327h.9v1.327h1.267v.845h-1.262v1.328z" fill="#ebb5ad"/><path d="M57.737 17.135v-.9h-.965v-.6h.965v-.974h.6v.965h.9v.6h-.9v.9z" fill="#0075a1"/><path d="M58.702 13.334v-.784h-.784v-.543h.784v-.785h.543v.784h.784v.543h-.784v.784z" fill="#ebb5ad"/><path d="M51.342 18.944v-1.75h-1.75v-1.206h1.75v-1.75h1.207v1.75h1.81v1.207h-1.81v1.75z" fill="#00a161"/><path d="M55.502 18.643v-.6h-.6v-.429h.6v-.6h.422v.6h.6v.422h-.6v.6z" fill="#94cfe5" fill-rule="evenodd"/><path d="M56.168 14.48v-.362h-.422v-.3h.422v-.364h.241v.362h.422v.3h-.422v.362z" fill="#124a61"/><path d="M.423 34.51l.181-.543a1.806 1.806 0 0 1 .241-.483l.181-.362h.483a.872.872 0 0 0-.121.422c-.06.121-.06.3-.121.483s-.06.3-.121.483a1.328 1.328 0 0 0-.06.483l-.784.06a1.762 1.762 0 0 1 .121-.543zm1.207 0l.181-.543c.06-.181.121-.3.181-.483l.18-.362h.543a3.845 3.845 0 0 0-.121.422c-.06.121-.06.3-.121.483s-.06.3-.121.483-.06.3-.121.483l-.784.06zm4.102 5.491a1.119 1.119 0 0 1-.422-.121l-.362-.181.181-.6a2.941 2.941 0 0 0 .422.181 1.86 1.86 0 0 0 .6.06 1.762 1.762 0 0 0 .543-.121.544.544 0 0 0 .362-.362 1.193 1.193 0 0 0 .121-.664v-.362c-.06.121-.181.181-.241.3l-.362.181a1.027 1.027 0 0 1-.422.06 1.785 1.785 0 0 1-.6-.121 1.452 1.452 0 0 1-.483-.362 1.887 1.887 0 0 1-.3-.6 3.028 3.028 0 0 1-.121-.724 3.561 3.561 0 0 1 .121-.845 1.026 1.026 0 0 1 .362-.6 1.265 1.265 0 0 1 .483-.362 1.785 1.785 0 0 1 .6-.121 1.176 1.176 0 0 1 .483.06l.362.181c.06.121.181.181.181.3v-.487h.724v3.68a1.762 1.762 0 0 1-.121.543 2.445 2.445 0 0 1-.3.543.879.879 0 0 1-.543.362 1.927 1.927 0 0 1-.845.181zm1.026-2.293a.727.727 0 0 0 .3-.3 1.2 1.2 0 0 0 .121-.543v-.724a1.42 1.42 0 0 0-.121-.483.727.727 0 0 0-.3-.3.872.872 0 0 0-.422-.121.685.685 0 0 0-.483.181.952.952 0 0 0-.3.483 2.25 2.25 0 0 0-.121.724 2.169 2.169 0 0 0 .121.664.77.77 0 0 0 .3.422.685.685 0 0 0 .483.181 2.19 2.19 0 0 1 .422-.184zm2.835.543a1.605 1.605 0 0 1-.6-.664 2.567 2.567 0 0 1-.241-1.026 3.057 3.057 0 0 1 .121-.784 2.23 2.23 0 0 1 .3-.664 1.314 1.314 0 0 1 .543-.422 1.287 1.287 0 0 1 .724-.181 1.216 1.216 0 0 1 .664.181 1.626 1.626 0 0 1 .483.422 2.143 2.143 0 0 1 .241.543 2.475 2.475 0 0 1 .06.664v.362H9.532a1.084 1.084 0 0 0 .181.664.811.811 0 0 0 .422.362 1.762 1.762 0 0 0 .543.121 1.67 1.67 0 0 0 .543-.06 3.845 3.845 0 0 0 .422-.121l.121.543a4.158 4.158 0 0 1-.483.181 2.262 2.262 0 0 1-.664.06 1.322 1.322 0 0 1-1.024-.181zm1.569-2.413a.461.461 0 0 0-.121-.3.471.471 0 0 0-.241-.241.6.6 0 0 0-.724 0 .471.471 0 0 0-.241.241c-.06.121-.121.181-.181.3a.765.765 0 0 0-.06.362h1.629a.765.765 0 0 1-.062-.363zm2.292 2.594a1.319 1.319 0 0 1-.3-.181.972.972 0 0 1-.241-.422 1.86 1.86 0 0 1-.06-.6v-1.935h-.545v-.608h.543v-.664l.784-.241v.905h.9v.6h-.9v1.87a1.2 1.2 0 0 0 .121.543.365.365 0 0 0 .362.181h.181a.222.222 0 0 0 .181-.06v.6c-.06 0-.181.06-.241.06h-.362a.9.9 0 0 1-.423-.048zm1.87 0l-.181-.181a.452.452 0 0 1-.06-.3.544.544 0 0 1 .06-.3c.06-.06.121-.181.181-.181a.473.473 0 0 1 .6.121.858.858 0 0 1 .121.362.544.544 0 0 1-.06.3l-.181.181a.363.363 0 0 1-.241.06c-.118-.002-.18-.002-.239-.062z" fill="#cf4503"/><path d="M16.773 38.432v-3.8h.845l.06.483a1.059 1.059 0 0 1 .241-.3c.121-.06.181-.181.362-.241a1.137 1.137 0 0 1 .483-.121 1.019 1.019 0 0 1 .6.181.749.749 0 0 1 .362.483 1.307 1.307 0 0 1 .543-.483.992.992 0 0 1 .6-.121 1.019 1.019 0 0 1 .6.181 1.626 1.626 0 0 1 .422.483 2.015 2.015 0 0 1 .181.9v2.293h-.965v-2.11a1.176 1.176 0 0 0-.06-.483 1.319 1.319 0 0 0-.181-.3.461.461 0 0 0-.3-.121.544.544 0 0 0-.3.06c-.06.06-.181.121-.241.241a.872.872 0 0 0-.121.422v2.293h-.965v-2.233a.9.9 0 0 0-.06-.422 1.319 1.319 0 0 0-.181-.3.461.461 0 0 0-.3-.121.544.544 0 0 0-.3.06.471.471 0 0 0-.241.241.872.872 0 0 0-.121.422v2.293h-.963z" fill="#00a161"/><path d="M23.53 38.251a1.605 1.605 0 0 1-.6-.664 1.983 1.983 0 0 1-.241-1.026 3.561 3.561 0 0 1 .121-.845 1.463 1.463 0 0 1 .362-.6 1.425 1.425 0 0 1 .543-.362 1.53 1.53 0 0 1 .724-.121 1.454 1.454 0 0 1 .9.241 1.605 1.605 0 0 1 .6.664 2.6 2.6 0 0 1 .181 1.026 2.015 2.015 0 0 1-.181.9 1.54 1.54 0 0 1-.422.6 1.425 1.425 0 0 1-.543.362 2.144 2.144 0 0 1-.6.121 2.027 2.027 0 0 1-.844-.296zm1.267-.6c.121-.06.181-.181.241-.241a.872.872 0 0 0 .121-.422c0-.121.06-.3.06-.483a1.027 1.027 0 0 0-.06-.422 1.118 1.118 0 0 0-.121-.422 1.059 1.059 0 0 0-.241-.3.461.461 0 0 0-.3-.121.857.857 0 0 0-.362.121.6.6 0 0 0-.241.3.872.872 0 0 0-.121.422c0 .181-.06.3-.06.422a1.86 1.86 0 0 0 .06.6c.06.181.121.362.241.422a.548.548 0 0 0 .422.181.4.4 0 0 0 .361-.06zm2.111.78v-3.8h.845l.06.664a.972.972 0 0 1 .241-.422 1.262 1.262 0 0 1 .362-.241.765.765 0 0 1 .362-.06h.241v.965h-.241a.872.872 0 0 0-.422.121.727.727 0 0 0-.3.3 1.2 1.2 0 0 0-.121.543v1.931z" fill="#cf4503"/><path d="M30.167 38.251a1.286 1.286 0 0 1-.6-.664 2.567 2.567 0 0 1-.241-1.026 3.057 3.057 0 0 1 .121-.784 2.23 2.23 0 0 1 .3-.664c.181-.181.3-.362.543-.422a1.606 1.606 0 0 1 .724-.181 1.509 1.509 0 0 1 .784.181 1.321 1.321 0 0 1 .543.6 2.6 2.6 0 0 1 .181 1.029v.362h-2.235a.842.842 0 0 0 .181.543 1.6 1.6 0 0 0 .362.3 1.42 1.42 0 0 0 .483.121 1.176 1.176 0 0 0 .483-.06c.121-.06.3-.06.422-.121l.121.664-.543.181a2.262 2.262 0 0 1-.664.06 1.085 1.085 0 0 1-.965-.119zm1.448-2.413c0-.121-.06-.181-.121-.3-.06-.06-.121-.181-.181-.181a.784.784 0 0 0-.6 0c-.06.06-.181.121-.241.241a.461.461 0 0 0-.121.3c0 .121-.06.181-.06.3h1.388a.653.653 0 0 0-.064-.361z" fill="#ab9100"/><path d="M34.752 34.51l.179-.548a1.806 1.806 0 0 1 .241-.483l.181-.362.483-.06a.872.872 0 0 0-.121.422 1.42 1.42 0 0 0-.121.483c-.06.181-.06.3-.121.483a1.328 1.328 0 0 0-.06.483l-.784.06a1.865 1.865 0 0 1 .123-.478zm1.207 0l.181-.543c.06-.181.121-.3.181-.483l.181-.362.483-.06a.872.872 0 0 0-.121.422 1.42 1.42 0 0 0-.121.483c-.06.181-.06.3-.121.483a1.328 1.328 0 0 0-.06.483l-.784.06a4.16 4.16 0 0 0 .18-.483z" fill="#cf4503"/></svg>